<?xml version="1.0" standalone="no"?><!DOCTYPE svg PUBLIC "-//W3C//DTD SVG 1.1//EN" "http://www.w3.org/Graphics/SVG/1.1/DTD/svg11.dtd" ><svg xmlns="http://www.w3.org/2000/svg"><metadata></metadata><defs><font id="fonteditor" horiz-adv-x="1000"><font-face font-family=" [W]åb?\Ñ G0v1 |OS" font-weight="400" font-stretch="normal" units-per-em="1000" panose-1="0 0 0 0 0 0 0 0 0 0" ascent="880" descent="-120" x-height="0" bbox="21 -82 980 830" underline-thickness="50" underline-position="-75" unicode-range="U+0030-ff09" /><missing-glyph horiz-adv-x="1000" d="M146 783 L842 783 L842 -78 L146 -78 L146 783 ZM730 714 L258 714 Q284 680 318 637 L376 562 Q447 469 494 410 L730 714 ZM730 -8 Q703 27 670 69 L612 144 Q537 242 494 296 Q467 261 434 219 L405 182 L377 145 Q303 50 258 -8 L730 -8 ZM771 54 L771 653 L539 353 L771 54 ZM217 53 L332 203 Q398 288 449 353 Q302 542 217 652 L217 53 Z" /><glyph glyph-name="zero" unicode="0" d="M163 3 L45 116 L45 566 L163 684 L422 684 L540 567 L540 116 L419 3 L163 3 ZM379 107 L394 121 L407 134 Q424 149 435 160 L435 521 L424 532 L414 543 L378 580 L207 580 L150 523 L150 160 L176 136 L184 129 L191 123 Q200 115 207 107 L379 107 Z" /><glyph glyph-name="three" unicode="3" d="M45 407 L314 407 L355 462 L355 518 L346 529 L337 539 Q319 562 304 579 L45 579 L45 683 L351 683 L459 557 L459 430 L405 356 Q416 343 432 325 L446 310 L459 295 L459 124 L351 3 L45 3 L45 107 L303 107 Q310 114 312 117 Q328 137 355 165 L355 258 L349 265 L342 272 Q334 281 329 288 L323 294 Q319 298 317 302 L45 302 L45 407 Z" /><glyph glyph-name="P" unicode="p" d="M150 253 L150 3 L45 3 L45 683 L390 683 L504 604 L504 332 L390 253 L150 253 ZM150 357 L355 357 L367 364 L378 371 L399 388 L399 548 L396 551 L392 554 L384 559 Q367 569 355 579 L150 579 L150 357 Z" /><glyph glyph-name="R" unicode="r" d="M330 267 L442 107 L527 107 L527 3 L388 3 L201 267 L149 267 L149 3 L45 3 L45 683 L385 683 L485 600 L485 349 L385 267 L330 267 ZM149 371 L349 371 L364 385 Q373 393 380 398 L380 551 Q376 555 365 565 L349 579 L149 579 L149 371 Z" /><glyph glyph-name="uniFF08" unicode="&#xff08;" d="M980 759 Q828 549 828 360 Q828 174 978 -17 L898 -82 Q724 139 724 360 Q724 583 894 820 L980 759 Z" /><glyph glyph-name="uniFF09" unicode="&#xff09;" d="M107 819 Q277 582 277 360 Q277 139 103 -82 L23 -17 Q173 174 173 360 Q173 548 21 760 L107 819 Z" /><glyph glyph-name="uni8868" unicode="&#x8868;" d="M852 305 L717 206 L574 328 L936 328 L936 436 L555 436 L555 496 L898 496 L898 604 L555 604 L555 661 L898 661 L898 769 L555 769 L555 830 L447 830 L447 769 L104 769 L104 661 L447 661 L447 604 L104 604 L104 496 L447 496 L447 436 L65 436 L65 328 L356 328 L54 103 L119 16 L272 130 L272 -69 L523 -69 L523 39 L379 39 L379 209 L468 276 L875 -70 L945 13 L801 135 L916 220 L852 305 Z" /><glyph glyph-name="uni2F24" unicode="&#x2f24;&#x5927;" d="M446 829 L446 593 L51 593 L51 486 L410 486 L53 -3 L139 -67 L500 426 L860 -67 L947 -3 L589 486 L948 486 L948 593 L553 593 L553 829 L446 829 Z" /><glyph glyph-name="uni5F53" unicode="&#x5f53;" d="M72 160 L817 160 L817 40 L72 40 L72 -68 L925 -68 L925 507 L555 507 L555 830 L447 830 L447 507 L72 507 L72 399 L817 399 L817 267 L72 267 L72 160 ZM319 637 L150 807 L73 730 L243 561 L319 637 ZM759 561 L928 730 L852 807 L684 637 L759 561 Z" /><glyph glyph-name="uni7535" unicode="&#x7535;" d="M419 829 L419 725 L78 725 L78 145 L419 145 L419 -69 L846 -69 L921 82 L824 130 L780 39 L527 39 L527 145 L869 145 L869 725 L527 725 L527 829 L419 829 ZM761 485 L527 485 L527 617 L761 617 L761 485 ZM186 617 L419 617 L419 485 L186 485 L186 617 ZM527 253 L527 377 L761 377 L761 253 L527 253 ZM186 377 L419 377 L419 253 L186 253 L186 377 Z" /><glyph glyph-name="uni5EA6" unicode="&#x5ea6;" d="M281 194 L313 194 L293 129 L423 87 L239 25 L270 -68 L581 37 L914 -68 L944 25 L738 90 L903 146 L903 293 L281 293 L281 194 ZM504 829 L504 754 L125 754 L125 98 L51 -6 L139 -68 L233 65 L233 646 L949 646 L949 754 L612 754 L612 829 L504 829 ZM265 475 L343 475 L343 321 L852 321 L852 475 L930 475 L930 583 L852 583 L852 628 L744 628 L744 583 L451 583 L451 628 L343 628 L343 583 L265 583 L265 475 ZM451 429 L451 475 L744 475 L744 429 L451 429 ZM580 141 L414 194 L737 194 L580 141 Z" /><glyph glyph-name="uni53D1" unicode="&#x53d1;" d="M376 830 L305 641 L195 641 L237 759 L136 794 L82 644 L82 535 L265 535 L54 -24 L154 -62 L310 352 L734 352 L557 238 L360 348 L309 255 L456 173 L225 25 L283 -65 L562 115 L890 -66 L941 26 L663 180 L881 320 L881 459 L350 459 L379 535 L945 535 L945 641 L786 641 L870 725 L775 819 L681 725 L764 641 L419 641 L476 792 L376 830 Z" /><glyph glyph-name="uni4F0F" unicode="&#x4f0f;" d="M587 829 L587 580 L336 580 L336 472 L557 472 L334 -24 L432 -68 L641 394 L851 -68 L949 -24 L724 472 L947 472 L947 580 L695 580 L695 829 L587 829 ZM275 823 L50 523 L136 459 L180 518 L180 -69 L288 -69 L288 662 L360 759 L275 823 ZM822 607 L918 702 L822 798 L727 702 L822 607 Z" /><glyph glyph-name="uni529F" unicode="&#x529f;" d="M520 830 L520 732 L456 732 L456 624 L520 624 L520 133 L425 -9 L514 -68 L627 100 L627 624 L831 624 L831 38 L673 38 L673 -70 L938 -70 L938 732 L627 732 L627 830 L520 830 ZM369 153 L326 92 L295 92 L295 615 L420 615 L420 723 L62 723 L62 615 L187 615 L187 92 L62 92 L62 -16 L382 -16 L458 92 L369 153 Z" /><glyph glyph-name="uni5149" unicode="&#x5149;" d="M445 828 L445 475 L51 475 L51 367 L247 367 L247 141 L55 29 L109 -64 L355 79 L355 367 L583 367 L583 -69 L862 -69 L946 150 L846 188 L788 39 L691 39 L691 367 L948 367 L948 475 L553 475 L553 828 L445 828 ZM812 805 L640 571 L728 507 L900 741 L812 805 ZM99 741 L271 507 L358 571 L186 805 L99 741 Z" /><glyph glyph-name="uni6052" unicode="&#x6052;" d="M398 649 L398 516 L327 591 L281 547 L281 830 L173 830 L173 544 L128 591 L51 516 L127 437 L173 480 L173 -68 L281 -68 L281 482 L325 437 L398 506 L398 120 L911 120 L911 649 L398 649 ZM506 228 L506 541 L803 541 L803 228 L506 228 ZM949 40 L360 40 L360 -68 L949 -68 L949 40 ZM949 827 L360 827 L360 720 L949 720 L949 827 ZM750 386 L656 484 L559 390 L654 293 L750 386 Z" /><glyph glyph-name="uni96C6" unicode="&#x96c6;" d="M907 785 L618 785 L618 824 L510 824 L510 785 L260 785 L260 823 L153 823 L153 772 L50 687 L119 604 L149 629 L149 269 L256 269 L256 297 L907 297 L907 405 L618 405 L618 428 L907 428 L907 527 L618 527 L618 553 L907 553 L907 652 L618 652 L618 677 L907 677 L907 785 ZM554 -68 L554 56 L903 -68 L939 32 L646 138 L949 138 L949 246 L554 246 L554 275 L446 275 L446 246 L50 246 L50 138 L353 138 L60 32 L97 -68 L446 56 L446 -68 L554 -68 ZM256 553 L510 553 L510 527 L256 527 L256 553 ZM256 677 L510 677 L510 652 L256 652 L256 677 ZM256 428 L510 428 L510 405 L256 405 L256 428 Z" /><glyph glyph-name="uni8BA1" unicode="&#x8ba1;" d="M700 -66 L700 396 L947 396 L947 504 L700 504 L700 828 L593 828 L593 504 L345 504 L345 396 L593 396 L593 -66 L700 -66 ZM52 440 L154 440 L154 -66 L364 -66 L364 42 L262 42 L262 548 L52 548 L52 440 ZM202 624 L297 719 L202 815 L107 719 L202 624 Z" /><glyph glyph-name="uni51CF" unicode="&#x51cf;" d="M629 -68 L748 77 L770 -70 L945 -70 L945 37 L863 37 L840 190 L948 322 L865 390 L818 333 L777 606 L945 606 L945 714 L892 714 L929 752 L854 827 L777 752 L815 714 L761 714 L744 829 L638 814 L653 714 L261 714 L261 99 L174 2 L254 -69 L368 58 L368 606 L669 606 L726 220 L650 126 L650 426 L401 426 L401 93 L622 93 L546 -1 L629 -68 ZM649 570 L402 570 L402 463 L649 463 L649 570 ZM146 110 L241 205 L146 301 L51 205 L146 110 ZM146 497 L241 592 L146 687 L51 592 L146 497 ZM508 200 L508 318 L543 318 L543 200 L508 200 Z" /><glyph glyph-name="uni8282" unicode="&#x8282;" d="M438 -67 L438 373 L773 373 L773 154 L606 154 L606 47 L881 47 L881 480 L88 480 L88 373 L330 373 L330 -67 L438 -67 ZM765 545 L765 629 L947 629 L947 737 L765 737 L765 827 L658 827 L658 737 L342 737 L342 827 L234 827 L234 737 L53 737 L53 629 L234 629 L234 545 L342 545 L342 629 L658 629 L658 545 L765 545 Z" /><glyph glyph-name="uni4ECA" unicode="&#x4eca;" d="M446 829 L446 774 L52 484 L116 397 L500 681 L884 397 L947 484 L554 774 L554 829 L446 829 ZM507 -69 L864 222 L864 366 L126 366 L126 258 L738 258 L439 15 L507 -69 ZM500 410 L595 505 L500 600 L405 505 L500 410 Z" /><glyph glyph-name="uni8FD1" unicode="&#x8fd1;" d="M842 73 L842 421 L934 421 L934 529 L484 529 L484 670 L847 670 L937 739 L872 823 L811 778 L376 778 L376 226 L306 147 L387 76 L484 186 L484 421 L734 421 L734 73 L842 73 ZM948 40 L369 40 L270 135 L270 564 L63 564 L63 456 L162 456 L162 137 L51 1 L134 -68 L218 35 L327 -68 L948 -68 L948 40 ZM207 603 L302 698 L207 794 L111 698 L207 603 Z" /><glyph glyph-name="uni7D2F" unicode="&#x7d2f;" d="M96 814 L96 433 L237 433 L147 392 L147 285 L257 285 L119 232 L119 124 L451 124 L451 40 L376 40 L376 -68 L559 -68 L559 124 L805 124 L899 207 L833 281 L767 223 L371 223 L534 285 L538 286 L761 371 L737 433 L900 433 L900 814 L96 814 ZM108 -71 L341 21 L301 122 L69 30 L108 -71 ZM931 30 L699 122 L659 21 L891 -71 L931 30 ZM645 433 L516 384 L366 384 L474 433 L645 433 ZM204 571 L444 571 L444 541 L204 541 L204 571 ZM552 541 L552 571 L792 571 L792 541 L552 541 ZM792 678 L552 678 L552 706 L792 706 L792 678 ZM204 706 L444 706 L444 678 L204 678 L204 706 Z" /><glyph glyph-name="uni91CF" unicode="&#x91cf;" d="M893 119 L549 119 L549 145 L880 145 L880 416 L120 416 L120 145 L450 145 L450 119 L107 119 L107 38 L450 38 L450 10 L51 10 L51 -70 L949 -70 L949 10 L549 10 L549 38 L893 38 L893 119 ZM128 811 L128 542 L872 542 L872 811 L128 811 ZM949 526 L51 526 L51 436 L949 436 L949 526 ZM463 623 L209 623 L209 730 L453 730 L405 681 L463 623 ZM537 623 L595 681 L546 730 L791 730 L791 623 L537 623 ZM549 226 L549 245 L799 245 L799 226 L549 226 ZM201 245 L450 245 L450 226 L201 226 L201 245 ZM799 317 L549 317 L549 335 L799 335 L799 317 ZM201 335 L450 335 L450 317 L201 317 L201 335 Z" /><glyph glyph-name="uni5217" unicode="&#x5217;" d="M150 294 L289 492 L419 492 L419 319 L386 275 L254 369 L192 282 L322 189 L177 -5 L263 -68 L527 283 L527 600 L313 600 L313 690 L559 690 L559 798 L96 798 L96 690 L205 690 L205 559 L62 356 L150 294 ZM831 825 L831 38 L657 38 L657 -69 L938 -69 L938 825 L831 825 ZM639 733 L639 138 L747 138 L747 733 L639 733 Z" /><glyph glyph-name="uni7387" unicode="&#x7387;" d="M614 620 L552 568 L472 568 L556 644 L948 644 L948 752 L554 752 L554 828 L446 828 L446 752 L51 752 L51 644 L396 644 L310 566 L310 460 L423 460 L301 357 L301 254 L666 254 L744 324 L673 404 L625 362 L475 362 L684 537 L614 620 ZM51 99 L446 99 L446 -69 L554 -69 L554 99 L948 99 L948 207 L554 207 L554 243 L446 243 L446 207 L51 207 L51 99 ZM260 343 L178 428 L94 347 L176 262 L260 343 ZM905 343 L823 428 L739 347 L822 262 L905 343 ZM260 535 L178 618 L94 537 L176 453 L260 535 ZM905 535 L823 618 L739 537 L822 453 L905 535 Z" /><glyph glyph-name="uni80FD" unicode="&#x80fd;" d="M499 -70 L499 482 L64 482 L64 -70 L171 -70 L171 374 L391 374 L391 -70 L499 -70 ZM281 155 L377 250 L281 346 L186 250 L281 155 ZM281 -46 L377 50 L281 145 L186 50 L281 -46 ZM252 828 L64 653 L64 509 L452 509 L539 593 L463 671 L409 617 L184 617 L325 750 L252 828 ZM554 813 L554 404 L936 404 L936 512 L662 512 L662 813 L554 813 ZM801 569 L897 664 L801 760 L706 664 L801 569 ZM554 345 L554 -64 L936 -64 L936 44 L662 44 L662 345 L554 345 ZM801 101 L897 196 L801 292 L706 196 L801 101 Z" /><glyph glyph-name="uni5E74" unicode="&#x5e74;" d="M77 137 L509 137 L509 -69 L617 -69 L617 137 L946 137 L946 245 L617 245 L617 406 L915 406 L915 514 L617 514 L617 654 L915 654 L915 761 L311 761 L311 827 L203 827 L203 731 L53 554 L135 485 L280 654 L509 654 L509 514 L202 514 L202 245 L77 245 L77 137 ZM309 406 L509 406 L509 245 L309 245 L309 406 Z" /><glyph glyph-name="uni6392" unicode="&#x6392;" d="M603 -68 L603 829 L495 829 L495 713 L362 713 L362 605 L495 605 L495 445 L362 445 L362 337 L495 337 L495 182 L350 182 L350 74 L495 74 L495 -68 L603 -68 ZM801 -68 L801 74 L947 74 L947 182 L801 182 L801 337 L935 337 L935 445 L801 445 L801 605 L935 605 L935 713 L801 713 L801 829 L694 829 L694 -68 L801 -68 ZM331 671 L257 671 L257 828 L149 828 L149 671 L53 671 L53 563 L149 563 L149 350 L65 350 L65 243 L149 243 L149 39 L97 39 L97 -69 L257 -69 L257 255 L357 346 L284 425 L257 400 L257 563 L331 563 L331 671 Z" /><glyph glyph-name="uni5E73" unicode="&#x5e73;" d="M51 235 L446 235 L446 -69 L554 -69 L554 235 L949 235 L949 343 L554 343 L554 720 L924 720 L924 828 L76 828 L76 720 L446 720 L446 343 L51 343 L51 235 ZM120 621 L258 396 L350 452 L213 677 L120 621 ZM788 677 L650 452 L742 396 L880 621 L788 677 Z" /><glyph glyph-name="uni8D8B" unicode="&#x8d8b;" d="M471 510 L333 510 L333 609 L442 609 L442 717 L333 717 L333 829 L225 829 L225 717 L116 717 L116 609 L225 609 L225 510 L87 510 L87 402 L263 402 L263 69 L215 129 L215 357 L107 357 L107 114 L51 -29 L151 -68 L179 2 L237 -70 L948 -70 L948 38 L371 38 L371 179 L471 179 L471 287 L371 287 L371 402 L471 402 L471 510 ZM497 478 L819 478 L819 377 L498 377 L498 269 L819 269 L819 173 L497 173 L497 65 L927 65 L927 586 L877 586 L932 679 L932 782 L634 782 L634 828 L526 828 L526 741 L444 623 L497 586 L497 478 ZM753 586 L549 586 L610 674 L804 674 L753 586 Z" /><glyph glyph-name="uni2F47" unicode="&#x2f47;&#x65e5;" d="M108 827 L108 -68 L891 -68 L891 827 L108 827 ZM216 40 L216 719 L783 719 L783 40 L216 40 ZM500 530 L343 375 L502 215 L658 371 L500 530 Z" /><glyph glyph-name="uni52BF" unicode="&#x52bf;" d="M730 481 L620 540 L620 656 L765 656 L765 311 L944 311 L944 419 L872 419 L872 763 L620 763 L620 826 L513 826 L513 763 L441 763 L441 656 L513 656 L513 598 L468 623 L417 529 L501 483 L414 410 L481 334 L396 334 L396 289 L118 289 L118 181 L333 181 L204 37 L104 37 L104 -70 L252 -70 L478 181 L784 181 L784 38 L588 38 L588 -69 L891 -69 L891 289 L504 289 L504 334 L491 334 L601 429 L679 387 L730 481 ZM404 569 L300 569 L300 656 L405 656 L405 764 L300 764 L300 828 L193 828 L193 764 L55 764 L55 656 L193 656 L193 569 L60 569 L60 461 L193 461 L193 419 L102 419 L102 311 L300 311 L300 461 L404 461 L404 569 Z" /><glyph glyph-name="uni53F0" unicode="&#x53f0;" d="M85 328 L85 -68 L914 -68 L914 328 L85 328 ZM387 830 L85 574 L86 384 L906 384 L906 565 L781 685 L707 608 L799 520 L800 491 L192 491 L192 524 L457 748 L387 830 ZM193 40 L193 221 L807 221 L807 40 L193 40 Z" /><glyph glyph-name="uni56E2" unicode="&#x56e2;" d="M70 819 L70 -67 L930 -67 L930 819 L70 819 ZM178 41 L178 711 L822 711 L822 41 L178 41 ZM497 78 L691 78 L691 500 L780 500 L780 608 L691 608 L691 686 L583 686 L583 608 L232 608 L232 500 L476 500 L216 210 L296 138 L583 457 L583 185 L497 185 L497 78 Z" /><glyph glyph-name="uni4E07" unicode="&#x4e07;" d="M949 825 L51 825 L51 717 L248 717 L171 123 L51 15 L122 -66 L273 69 L322 450 L778 450 L778 42 L613 42 L613 -66 L885 -66 L885 558 L336 558 L357 717 L949 717 L949 825 Z" /><glyph glyph-name="uni2F49" unicode="&#x2f49;&#x6708;" d="M671 -68 L921 -68 L921 828 L165 828 L165 114 L79 -3 L166 -66 L273 79 L273 720 L813 720 L813 39 L671 39 L671 -68 ZM535 656 L410 530 L537 404 L662 530 L535 656 ZM535 352 L410 226 L537 100 L662 225 L535 352 Z" /><glyph glyph-name="uni4E91" unicode="&#x4e91;" d="M947 511 L51 511 L51 403 L226 403 L52 48 L52 -70 L876 -70 L948 109 L848 148 L803 38 L166 38 L345 403 L947 403 L947 511 ZM922 825 L76 825 L76 718 L922 718 L922 825 Z" /><glyph glyph-name="uni7AD9" unicode="&#x7ad9;" d="M730 413 L730 830 L622 830 L622 413 L488 413 L488 -68 L939 -68 L939 413 L730 413 ZM595 40 L595 306 L831 306 L831 40 L595 40 ZM234 663 L71 663 L71 555 L450 555 L450 663 L285 663 L355 733 L260 828 L164 733 L234 663 ZM387 73 L433 498 L326 509 L279 85 L387 73 ZM240 85 L194 509 L87 498 L133 73 L240 85 ZM465 40 L55 40 L55 -68 L465 -68 L465 40 ZM848 529 L944 624 L848 719 L753 624 L848 529 Z" /><glyph glyph-name="uni667A" unicode="&#x667a;" d="M127 828 L127 779 L62 701 L138 636 L80 636 L80 528 L198 528 L62 409 L132 328 L132 -69 L882 -69 L882 359 L167 359 L322 494 L466 360 L540 438 L442 528 L541 528 L541 636 L371 636 L371 693 L515 693 L515 801 L234 801 L234 828 L127 828 ZM564 801 L564 379 L938 379 L938 801 L564 801 ZM240 39 L240 251 L774 251 L774 39 L240 39 ZM671 487 L671 693 L830 693 L830 487 L671 487 ZM411 147 L505 49 L603 142 L508 240 L411 147 ZM195 693 L264 693 L264 636 L148 636 L195 693 Z" /><glyph glyph-name="uni603B" unicode="&#x603b;" d="M744 720 L774 778 L678 827 L623 720 L383 720 L348 828 L246 795 L270 720 L149 720 L149 314 L861 314 L861 720 L744 720 ZM257 422 L257 612 L754 612 L754 422 L257 422 ZM739 101 L675 38 L368 38 L368 276 L260 276 L260 -69 L720 -69 L815 24 L739 101 ZM942 172 L847 269 L751 176 L846 78 L942 172 ZM248 133 L154 231 L58 137 L152 40 L248 133 ZM622 210 L528 306 L432 213 L526 116 L622 210 Z" /></font>
</defs>
</svg>
